<svg width="27" height="19" viewBox="0 0 27 19" fill="none" xmlns="http://www.w3.org/2000/svg">
<path d="M1.83333 18.25C1.42014 18.25 1.07378 18.1102 0.794271 17.8307C0.514757 17.5512 0.375 17.2049 0.375 16.7917C0.375 16.3785 0.514757 16.0321 0.794271 15.7526C1.07378 15.4731 1.42014 15.3333 1.83333 15.3333H25.1667C25.5799 15.3333 25.9262 15.4731 26.2057 15.7526C26.4852 16.0321 26.625 16.3785 26.625 16.7917C26.625 17.2049 26.4852 17.5512 26.2057 17.8307C25.9262 18.1102 25.5799 18.25 25.1667 18.25H1.83333ZM1.83333 10.9583C1.42014 10.9583 1.07378 10.8186 0.794271 10.5391C0.514757 10.2595 0.375 9.91319 0.375 9.5C0.375 9.08681 0.514757 8.74045 0.794271 8.46094C1.07378 8.18142 1.42014 8.04167 1.83333 8.04167H25.1667C25.5799 8.04167 25.9262 8.18142 26.2057 8.46094C26.4852 8.74045 26.625 9.08681 26.625 9.5C26.625 9.91319 26.4852 10.2595 26.2057 10.5391C25.9262 10.8186 25.5799 10.9583 25.1667 10.9583H1.83333ZM1.83333 3.66667C1.42014 3.66667 1.07378 3.52691 0.794271 3.2474C0.514757 2.96788 0.375 2.62153 0.375 2.20833C0.375 1.79514 0.514757 1.44878 0.794271 1.16927C1.07378 0.889757 1.42014 0.75 1.83333 0.75H25.1667C25.5799 0.75 25.9262 0.889757 26.2057 1.16927C26.4852 1.44878 26.625 1.79514 26.625 2.20833C26.625 2.62153 26.4852 2.96788 26.2057 3.2474C25.9262 3.52691 25.5799 3.66667 25.1667 3.66667H1.83333Z" fill="#232323"/>
</svg>
